<?xml version="1.0" encoding="utf-8" standalone="no"?>
<!DOCTYPE svg PUBLIC "-//W3C//DTD SVG 1.1//EN" "http://www.w3.org/Graphics/SVG/1.1/DTD/svg11.dtd">
<svg version="1.1" xmlns="http://www.w3.org/2000/svg" xmlns:xlink="http://www.w3.org/1999/xlink" xml:space="preserve">

	<symbol id="mob-logo" viewBox="0 0 235.516 51">


	<g>
		<polygon points="156.982,0.056 156.705,0.345 156.705,3.129 156.982,3.414 160.32,3.414 160.592,3.129 
			160.592,0.345 160.32,0.056 		"/>
		<polygon points="179.501,0.056 179.225,0.345 179.225,3.129 179.501,3.414 182.835,3.414 183.113,3.129 
			183.113,0.345 182.835,0.056 		"/>
		<g>
			<path d="M145.278,16.257h-2.503l-0.275-0.279V3.69l0.275-0.276h2.503c3.892,0,5.278,1.948,5.278,6.418
				C150.557,14.304,149.17,16.257,145.278,16.257 M145.002,0.056h-6.118l-0.274,0.289V19.33l0.274,0.279h6.118
				c6.951,0,9.448-3.631,9.448-9.777C154.45,3.69,151.953,0.056,145.002,0.056"/>
		</g>
		<polygon points="156.982,5.643 156.705,5.924 156.705,19.33 156.982,19.609 160.32,19.609 160.592,19.33 
			160.592,5.924 160.32,5.643 		"/>
		<g>
			<path d="M169.738,16.537c-2.22,0-3.059-1.673-3.059-3.91c0-2.231,0.839-3.912,3.059-3.912
				c2.229,0,3.068,1.68,3.068,3.912C172.807,14.863,171.968,16.537,169.738,16.537 M173.358,5.643l-0.287,0.282l-0.265,0.835h-0.285
				c0,0-1.118-1.397-3.609-1.397c-3.338,0-6.115,2.792-6.115,7.265c0,4.476,2.777,7.26,6.115,7.26c2.491,0,3.609-1.39,3.609-1.39
				h0.285c0,2.511-1.121,3.631-3.068,3.631c-1.111,0-1.667-0.281-1.938-0.838l-0.281-0.282h-3.332l-0.277,0.282
				c0.277,2.515,2.5,4.186,5.829,4.186c3.894,0,6.954-2.231,6.954-7.261V5.924l-0.283-0.282H173.358z"/>
		</g>
		<polygon points="179.501,5.643 179.225,5.924 179.225,19.33 179.501,19.609 182.835,19.609 183.113,19.33 
			183.113,5.924 182.835,5.643 		"/>
		<g>
			<path d="M191.696,5.643l-0.277-0.281V2.85l-0.274-0.277h-3.339l-0.276,0.277v2.512l-0.275,0.281h-1.948
				l-0.28,0.282v2.791l0.28,0.286h1.948l0.275,0.273v6.149c0,3.073,2.223,4.185,4.728,4.185h2.499l0.282-0.279v-2.793l-0.282-0.28
				h-2.499c-0.561,0-0.838-0.285-0.838-0.833V9.274l0.277-0.273h3.06l0.282-0.286V5.924l-0.282-0.282H191.696z"/>
			<path d="M205.173,14.583c0,1.116-1.093,2.006-2.604,2.006c-1.367,0-1.99-0.592-1.99-1.396
				c0-0.985,0.543-1.723,2.593-1.723h2.001V14.583z M203.172,5.365c-4.441,0-5.827,2.514-5.827,4.189l0.27,0.278h3.332l0.287-0.278
				c0.278-0.839,1.114-0.839,1.938-0.839c1.674,0,2.001,0.28,2.001,1.68v0.282h-2.275c-2.215,0-6.114,0.554-6.114,4.746
				c0,2.791,1.947,4.463,4.999,4.463c1.952,0,3.208-1.26,3.208-1.26h0.281l0.175,0.703l0.282,0.279h3.013l0.266-0.279v-7.543
				C209.007,7.602,207.624,5.365,203.172,5.365"/>
		</g>
		<polygon points="211.591,0.056 211.318,0.345 211.318,19.33 211.591,19.609 214.933,19.609 215.207,19.33 
			215.207,0.345 214.933,0.056 		"/>
		<polygon points="215.659,25.854 215.384,26.144 215.384,28.927 215.659,29.211 218.999,29.211 219.269,28.927 
			219.269,26.144 218.999,25.854 		"/>
		<g>
			<path d="M147.78,33.683c-3.895-0.56-5.002-1.121-5.002-2.798c0-1.118,0.837-1.958,3.336-1.958
				c3.058,0,3.892,0.84,3.892,2.515l0.273,0.28h3.332l0.285-0.28c0-3.347-2.229-5.866-7.503-5.866c-5.285,0-7.511,2.519-7.511,5.309
				c0,3.91,3.063,5.309,6.947,5.866c3.896,0.559,5.001,1.116,5.001,3.073c0,1.678-1.386,2.512-3.886,2.512
				c-3.33,0-4.451-1.115-4.451-3.068l-0.28-0.285h-3.331l-0.273,0.285c0,3.629,2.499,6.418,8.063,6.418
				c5.832,0,8.052-2.789,8.052-5.861C154.725,35.914,151.668,34.238,147.78,33.683"/>
			<path d="M163.774,42.336c-2.215,0-3.046-1.672-3.046-3.912c0-2.23,0.831-3.911,3.046-3.911
				c2.224,0,3.062,1.681,3.062,3.911C166.836,40.664,165.998,42.336,163.774,42.336 M164.614,31.162
				c-2.499,0-3.621,1.399-3.621,1.399h-0.265l-0.283-0.84l-0.273-0.28h-3.062l-0.282,0.28v18.993L157.11,51h3.335l0.283-0.285v-6.42
				h0.265c0,0,1.122,1.391,3.621,1.391c3.337,0,6.114-2.785,6.114-7.262C170.729,33.957,167.951,31.162,164.614,31.162"/>
			<path d="M181.826,31.441l-0.278,0.28v7.261c0,1.959-0.834,3.354-2.781,3.354c-1.665,0-2.22-1.115-2.22-2.512
				v-8.103l-0.273-0.28h-3.34l-0.278,0.28v8.38c0,3.352,1.948,5.584,5.283,5.584c2.498,0,3.33-1.391,3.33-1.391h0.279l0.278,0.834
				l0.275,0.277h3.063l0.281-0.277V31.722l-0.281-0.28H181.826z"/>
			<path d="M194.199,31.441l-0.276-0.281v-2.514l-0.278-0.277h-3.335l-0.277,0.277v2.514l-0.276,0.281h-1.95
				l-0.276,0.28v2.791l0.276,0.286h1.95l0.276,0.277v6.145c0,3.074,2.218,4.186,4.717,4.186h2.505l0.287-0.277v-2.793l-0.287-0.281
				h-2.505c-0.55,0-0.826-0.283-0.826-0.834v-6.145l0.276-0.277h3.055l0.287-0.286v-2.791l-0.287-0.28H194.199z"/>
			<path d="M207.569,31.162c-1.944,0-3.06,0.84-3.612,1.399h-0.275l-0.277-0.84l-0.281-0.28h-3.055l-0.277,0.28
				v13.407l0.277,0.277h3.336l0.277-0.277v-6.982c0-2.518,1.113-3.634,3.055-3.634c1.665,0,2.225,1.116,2.225,2.519v8.098
				l0.28,0.277h3.334l0.28-0.277v-8.378C212.855,33.4,210.903,31.162,207.569,31.162"/>
		</g>
		<polygon points="215.659,31.441 215.384,31.722 215.384,45.129 215.659,45.406 218.999,45.406 219.269,45.129 
			219.269,31.722 218.999,31.441 		"/>
		<polygon points="230.748,38.146 230.748,37.867 234.081,34.513 234.081,31.722 233.801,31.441 232.136,31.441 
			231.582,31.722 226.022,37.31 225.742,37.31 225.742,26.137 225.468,25.854 222.136,25.854 221.851,26.137 221.851,45.129 
			222.136,45.406 225.468,45.406 225.742,45.129 225.742,43.18 226.022,42.623 227.686,40.941 227.972,40.941 231.857,45.129 
			232.413,45.406 235.516,45.406 235.516,43.676 		"/>
		<path d="M114.898,0.023L69.704,0L51.178,18.734H36.347L54.968,0.021l-11.844-0.02L0,0.023v45.686h62.17
			l18.624-18.713h0.101l14.602-0.004L76.87,45.709h37.967l14.451-14.518V14.478L114.898,0.023z M58.786,37.451H8.216L8.217,8.275
			H35.15L25.063,18.411v8.599L67.638,27l0.234-0.008h1.32L58.786,37.451z M121.067,27.777l-9.635,9.68l-14.73-0.006l10.091-10.138
			v-8.58H62.815L73.144,8.253l38.289,0.022l9.635,9.68V27.777z"/>
	</g>


	<g display="inline">
		<polygon points="-60.817,110.768 -42.786,110.768 -35.522,97.549 -37.665,97.389 -43.744,108.768 -59.69,108.768 
			-70.214,88.763 -70.214,88.763 -70.057,88.768 -79.214,88.768 -79.214,90.768 -71.34,90.768 		"/>
		<circle cx="-58.776" cy="115.675" r="3.001"/>
		<circle cx="-44.978" cy="115.675" r="3.001"/>
	</g>
	<rect x="-60.214" y="95.768" display="inline" width="16" height="2"/>
	<rect x="-53.214" y="88.768" display="inline" width="2" height="16"/>


	</symbol>
	<symbol id="svgSearch" viewBox="0 0 22 22.005">
		<g>
			<defs>
				<rect id="SVGID_1_" width="22" height="22.005"/>
			</defs>
			<clipPath id="SVGID_2_">
				<use xlink:href="#SVGID_1_"  overflow="visible"/>
			</clipPath>
			<path clip-path="url(#SVGID_2_)"  d="M16.486,8.244C16.486,3.691,12.795,0,8.242,0S0,3.691,0,8.244
				s3.689,8.244,8.242,8.244S16.486,12.796,16.486,8.244L16.486,8.244z M8.242,14.427c-3.408,0-6.182-2.773-6.182-6.183
				c0-3.409,2.773-6.183,6.182-6.183s6.184,2.773,6.184,6.183C14.426,11.654,11.65,14.427,8.242,14.427L8.242,14.427z M8.242,14.427"
				/>
			<path clip-path="url(#SVGID_2_)" d="M21.379,18.465l-5.043-5.043c-0.754,1.169-1.746,2.163-2.916,2.914l5.045,5.044
				c0.807,0.805,2.109,0.805,2.914,0S22.184,19.271,21.379,18.465L21.379,18.465z M21.379,18.465"/>
		</g>
	</symbol>
	<symbol id="svgLogo" viewBox="0 0 65.208 22.942">
		<path fill="#FFFFFF" d="M57.953,0.012L35.157,0l-9.345,9.402h-7.48l9.392-9.392L21.75,0.001L0,0.012v22.93h31.357l9.393-9.393
		h0.052l7.364-0.002l-9.395,9.395h19.15l7.287-7.288V7.267L57.953,0.012z M29.65,18.797H4.144L4.146,4.153h13.583l-5.087,5.087
		v4.316l21.473-0.005l0.119-0.004h0.666L29.65,18.797z M61.063,13.941L56.204,18.8l-7.431-0.003l5.088-5.088V9.402H31.682
		l5.209-5.261l19.313,0.012l4.859,4.859V13.941z"/>
	</symbol>
	<symbol id="svgLogoText" viewBox="0 0 211.774 30">
		<g>
		<polygon fill="#FFFFFF" points="21.557,0.326 21.227,0.664 21.227,3.913 21.557,4.245 25.469,4.245 25.79,3.913 25.79,0.664 
			25.469,0.326 		"/>
		<polygon fill="#FFFFFF" points="47.971,0.326 47.646,0.664 47.646,3.913 47.971,4.245 51.88,4.245 52.206,3.913 52.206,0.664 
			51.88,0.326 		"/>
		<polygon fill="#FFFFFF" points="188.483,0.326 188.157,0.664 188.157,3.913 188.483,4.245 192.395,4.245 192.713,3.913 
			192.713,0.664 192.395,0.326 		"/>
		<g>
			<g>
				<path fill="#FFFFFF" d="M7.825,19.237H4.886l-0.319-0.325V4.568l0.319-0.323h2.938c4.566,0,6.193,2.276,6.193,7.492
					C14.018,16.958,12.391,19.237,7.825,19.237 M7.499,0.326H0.327L0,0.664v22.16l0.327,0.326h7.172
					c8.156,0,11.09-4.238,11.09-11.413C18.588,4.568,15.655,0.326,7.499,0.326"/>
			</g>
			<polygon fill="#FFFFFF" points="21.557,6.847 21.227,7.176 21.227,22.824 21.557,23.15 25.469,23.15 25.79,22.824 25.79,7.176 
				25.469,6.847 			"/>
			<g>
				<path fill="#FFFFFF" d="M36.52,19.565c-2.604,0-3.588-1.952-3.588-4.566c0-2.603,0.984-4.566,3.588-4.566
					c2.609,0,3.594,1.963,3.594,4.566C40.114,17.613,39.129,19.565,36.52,19.565 M40.764,6.847L40.43,7.176l-0.316,0.98h-0.332
					c0,0-1.305-1.635-4.232-1.635c-3.918,0-7.178,3.263-7.178,8.479c0,5.225,3.26,8.476,7.178,8.476
					c2.928,0,4.232-1.621,4.232-1.621h0.332c0,2.929-1.31,4.235-3.594,4.235c-1.301,0-1.957-0.328-2.277-0.977l-0.326-0.33h-3.911
					l-0.327,0.33C30.005,28.049,32.61,30,36.52,30c4.568,0,8.156-2.605,8.156-8.477V7.176l-0.332-0.329H40.764z"/>
			</g>
			<polygon fill="#FFFFFF" points="47.971,6.847 47.646,7.176 47.646,22.824 47.971,23.15 51.88,23.15 52.206,22.824 52.206,7.176 
				51.88,6.847 			"/>
			<g>
				<path fill="#FFFFFF" d="M62.278,6.847l-0.326-0.326V3.587l-0.328-0.325h-3.91l-0.326,0.325v2.934l-0.323,0.326h-2.286
					l-0.324,0.329v3.258l0.324,0.334h2.286l0.323,0.32v7.176c0,3.591,2.605,4.887,5.548,4.887h2.931l0.332-0.326v-3.259
					l-0.332-0.328h-2.931c-0.657,0-0.983-0.331-0.983-0.974v-7.176l0.326-0.32h3.588l0.332-0.334V7.176l-0.332-0.329H62.278z"/>
				<path fill="#FFFFFF" d="M78.083,17.285c0,1.301-1.283,2.34-3.053,2.34c-1.604,0-2.334-0.69-2.334-1.627
					c0-1.152,0.635-2.014,3.049-2.014h2.338V17.285z M75.745,6.523c-5.221,0-6.841,2.937-6.841,4.891l0.317,0.324h3.91l0.334-0.324
					c0.324-0.98,1.303-0.98,2.279-0.98c1.959,0,2.338,0.328,2.338,1.963v0.33h-2.664c-2.604,0-7.174,0.646-7.174,5.539
					c0,3.258,2.279,5.21,5.867,5.21c2.283,0,3.758-1.47,3.758-1.47h0.326l0.215,0.818l0.326,0.326h3.531l0.316-0.326v-8.803
					C82.584,9.134,80.958,6.523,75.745,6.523"/>
			</g>
			<polygon fill="#FFFFFF" points="85.616,0.326 85.292,0.664 85.292,22.824 85.616,23.15 89.528,23.15 89.854,22.824 89.854,0.664 
				89.528,0.326 			"/>
			<g>
				<path fill="#FFFFFF" d="M108.852,9.459c-4.564-0.648-5.865-1.303-5.865-3.263c0-1.304,0.979-2.284,3.912-2.284
					c3.586,0,4.564,0.98,4.564,2.934l0.322,0.329h3.912l0.332-0.329c0-3.907-2.613-6.847-8.805-6.847
					c-6.197,0-8.807,2.94-8.807,6.197c0,4.564,3.588,6.2,8.15,6.85c4.568,0.651,5.869,1.301,5.869,3.586
					c0,1.959-1.629,2.933-4.563,2.933c-3.91,0-5.223-1.3-5.223-3.581l-0.322-0.332h-3.912l-0.324,0.332
					c0,4.234,2.934,7.491,9.463,7.491c6.842,0,9.445-3.257,9.445-6.843C117.002,12.068,113.417,10.113,108.852,9.459"/>
				<path fill="#FFFFFF" d="M127.622,19.565c-2.605,0-3.58-1.952-3.58-4.566c0-2.603,0.975-4.566,3.58-4.566
					c2.607,0,3.586,1.963,3.586,4.566C131.208,17.613,130.229,19.565,127.622,19.565 M128.604,6.523
					c-2.936,0-4.246,1.633-4.246,1.633h-0.316l-0.326-0.98l-0.326-0.329h-3.594l-0.324,0.329v22.172l0.324,0.332h3.92l0.326-0.332
					v-7.493h0.316c0,0,1.311,1.621,4.246,1.621c3.91,0,7.17-3.251,7.17-8.476C135.774,9.784,132.514,6.523,128.604,6.523"/>
				<path fill="#FFFFFF" d="M148.79,6.847l-0.324,0.329v8.477c0,2.284-0.977,3.913-3.262,3.913c-1.953,0-2.602-1.302-2.602-2.933
					V7.176l-0.326-0.329h-3.912l-0.332,0.329v9.782c0,3.913,2.285,6.518,6.203,6.518c2.922,0,3.904-1.621,3.904-1.621h0.326
					l0.324,0.97l0.326,0.326h3.592l0.326-0.326V7.176l-0.326-0.329H148.79z"/>
				<path fill="#FFFFFF" d="M163.311,6.847l-0.332-0.326V3.587l-0.324-0.325h-3.912l-0.326,0.325v2.934l-0.326,0.326h-2.283
					l-0.328,0.329v3.258l0.328,0.334h2.283l0.326,0.32v7.176c0,3.591,2.604,4.887,5.539,4.887h2.936l0.33-0.326v-3.259l-0.33-0.328
					h-2.936c-0.645,0-0.977-0.331-0.977-0.974v-7.176l0.332-0.32h3.58l0.33-0.334V7.176l-0.33-0.329H163.311z"/>
				<path fill="#FFFFFF" d="M178.991,6.523c-2.283,0-3.586,0.978-4.236,1.633h-0.326l-0.324-0.98l-0.324-0.329h-3.594l-0.32,0.329
					v15.648l0.32,0.326h3.918l0.324-0.326v-8.148c0-2.939,1.311-4.243,3.588-4.243c1.951,0,2.604,1.304,2.604,2.939v9.452
					l0.33,0.326h3.912l0.326-0.326v-9.777C185.188,9.134,182.905,6.523,178.991,6.523"/>
			</g>
			<polygon fill="#FFFFFF" points="188.483,6.847 188.157,7.176 188.157,22.824 188.483,23.15 192.395,23.15 192.713,22.824 
				192.713,7.176 192.395,6.847 			"/>
			<polygon fill="#FFFFFF" points="206.178,14.676 206.178,14.348 210.092,10.434 210.092,7.176 209.764,6.847 207.805,6.847 
				207.155,7.176 200.639,13.698 200.309,13.698 200.309,0.656 199.987,0.326 196.077,0.326 195.741,0.656 195.741,22.824 
				196.077,23.15 199.987,23.15 200.309,22.824 200.309,20.553 200.639,19.899 202.586,17.937 202.918,17.937 207.481,22.824 
				208.137,23.15 211.774,23.15 211.774,21.13 			"/>
		</g>
	</g>
	</symbol>
	<symbol id="svgCart" viewBox="0 0 43.691 29.913">
		<polygon fill="#FFFFFF" points="18.396,22.005 36.428,22.005 43.691,8.787 41.549,8.626 35.47,20.005 19.523,20.005 9,0 9,0 
		9.157,0.005 0,0.005 0,2.005 7.874,2.005 	"/>
	<circle fill="#FFFFFF" cx="20.438" cy="26.912" r="3.001"/>
	<circle fill="#FFFFFF" cx="34.236" cy="26.912" r="3.001"/>
	</symbol>


	<symbol id="svgInsta" viewBox="0 0 22 22.001">
		<path fill="#B3B3B3" d="M17.65,11c0,3.675-2.979,6.651-6.652,6.651S4.348,14.675,4.348,11c0-0.438,0.043-0.865,0.125-1.279H0v8.843
		c0,1.897,1.537,3.438,3.438,3.438h15.125c1.896,0,3.438-1.54,3.438-3.438V9.721h-4.473C17.607,10.135,17.65,10.563,17.65,11
		L17.65,11z M18.563,0H3.438C1.537,0,0,1.539,0,3.438v3.726h5.566C6.771,5.461,8.756,4.35,10.998,4.35
		c2.244,0,4.229,1.111,5.432,2.813H22V3.438C22,1.539,20.459,0,18.563,0L18.563,0z M20.242,4.247c0,0.338-0.277,0.613-0.613,0.613
		h-1.842c-0.338,0-0.615-0.275-0.615-0.613V2.405c0-0.338,0.277-0.613,0.615-0.613h1.842c0.336,0,0.613,0.275,0.613,0.613V4.247z
		 M15.092,11c0-2.26-1.832-4.092-4.094-4.092c-2.26,0-4.092,1.832-4.092,4.092c0,2.261,1.832,4.093,4.092,4.093
		C13.26,15.093,15.092,13.261,15.092,11L15.092,11z M15.092,11"/>
	</symbol>
	<symbol id="svgFb" viewBox="0 0 22 22.058">
		<defs>
			<rect id="SVGID_1_" width="22" height="22.058"/>
		</defs>
		<clipPath id="SVGID_2_">
			<use xlink:href="#SVGID_1_"  overflow="visible"/>
		</clipPath>
		<path clip-path="url(#SVGID_2_)" fill="#B3B3B3" d="M10.998,0C4.924,0,0,4.925,0,11c0,6.076,4.924,11.001,10.998,11.001
			C17.074,22.001,22,17.076,22,11C22,4.925,17.074,0,10.998,0L10.998,0z M13.605,7.602h-1.654c-0.195,0-0.414,0.257-0.414,0.601
			v1.195h2.068v1.702h-2.068v5.112H9.584v-5.112h-1.77V9.397h1.77V8.395c0-1.437,0.998-2.605,2.367-2.605h1.654V7.602z
			 M13.605,7.602"/>
	</symbol>
	<symbol id="svgGoogle" viewBox="0 0 22 22.058">
		<defs>
			<rect id="SVGID_1_" width="22" height="22.056"/>
		</defs>
		<clipPath id="SVGID_2_">
			<use xlink:href="#SVGID_1_"  overflow="visible"/>
		</clipPath>
		<path clip-path="url(#SVGID_2_)" fill="#B3B3B3" d="M9.965,7.889C9.688,6.915,9.242,6.628,8.547,6.628
			c-0.078,0-0.152,0.01-0.225,0.03C8.023,6.743,7.783,6.995,7.65,7.367C7.514,7.747,7.504,8.141,7.623,8.591
			C7.834,9.394,8.404,9.976,8.98,9.976c0.074,0,0.15-0.01,0.223-0.03C9.832,9.769,10.227,8.807,9.965,7.889L9.965,7.889z M10.998,0
			C4.924,0,0,4.925,0,11c0,6.076,4.924,11,10.998,11C17.074,22,22,17.076,22,11C22,4.925,17.074,0,10.998,0L10.998,0z
			 M10.365,15.722c-0.689,0.336-1.436,0.373-1.723,0.373c-0.055,0-0.086-0.002-0.092-0.002c0,0-0.02,0.001-0.055,0.001
			c-0.449,0-2.684-0.104-2.684-2.14c0-2.001,2.434-2.157,3.18-2.157h0.02c-0.43-0.575-0.342-1.156-0.342-1.156
			c-0.037,0.003-0.092,0.006-0.16,0.006c-0.281,0-0.822-0.045-1.289-0.346c-0.57-0.367-0.859-0.99-0.859-1.855
			c0-2.441,2.668-2.54,2.693-2.541h2.662v0.058c0,0.298-0.535,0.355-0.898,0.405c-0.123,0.017-0.373,0.043-0.443,0.079
			c0.674,0.36,0.783,0.927,0.783,1.771c0,0.958-0.375,1.467-0.775,1.824c-0.244,0.22-0.439,0.395-0.439,0.626
			c0,0.227,0.268,0.461,0.574,0.732c0.506,0.444,1.199,1.054,1.199,2.074C11.717,14.531,11.262,15.287,10.365,15.722L10.365,15.722z
			 M16.188,10.989h-1.736v1.737h-1.1v-1.737h-1.736v-1.1h1.736V8.153h1.1v1.736h1.736V10.989z M8.963,12.32
			c-0.061,0-0.119,0.002-0.18,0.006c-0.508,0.037-0.979,0.229-1.318,0.537c-0.338,0.305-0.508,0.688-0.484,1.078
			c0.051,0.814,0.926,1.291,1.988,1.215c1.045-0.076,1.742-0.678,1.691-1.492C10.611,12.897,9.945,12.32,8.963,12.32L8.963,12.32z
			 M8.963,12.32"/>
	</symbol>
	<symbol id="svgGoogle" viewBox="0 0 22 22.058">
		<defs>
			<rect id="SVGID_1_" width="22" height="22.056"/>
		</defs>
		<clipPath id="SVGID_2_">
			<use xlink:href="#SVGID_1_"  overflow="visible"/>
		</clipPath>
		<path clip-path="url(#SVGID_2_)" fill="#B3B3B3" d="M9.965,7.889C9.688,6.915,9.242,6.628,8.547,6.628
			c-0.078,0-0.152,0.01-0.225,0.03C8.023,6.743,7.783,6.995,7.65,7.367C7.514,7.747,7.504,8.141,7.623,8.591
			C7.834,9.394,8.404,9.976,8.98,9.976c0.074,0,0.15-0.01,0.223-0.03C9.832,9.769,10.227,8.807,9.965,7.889L9.965,7.889z M10.998,0
			C4.924,0,0,4.925,0,11c0,6.076,4.924,11,10.998,11C17.074,22,22,17.076,22,11C22,4.925,17.074,0,10.998,0L10.998,0z
			 M10.365,15.722c-0.689,0.336-1.436,0.373-1.723,0.373c-0.055,0-0.086-0.002-0.092-0.002c0,0-0.02,0.001-0.055,0.001
			c-0.449,0-2.684-0.104-2.684-2.14c0-2.001,2.434-2.157,3.18-2.157h0.02c-0.43-0.575-0.342-1.156-0.342-1.156
			c-0.037,0.003-0.092,0.006-0.16,0.006c-0.281,0-0.822-0.045-1.289-0.346c-0.57-0.367-0.859-0.99-0.859-1.855
			c0-2.441,2.668-2.54,2.693-2.541h2.662v0.058c0,0.298-0.535,0.355-0.898,0.405c-0.123,0.017-0.373,0.043-0.443,0.079
			c0.674,0.36,0.783,0.927,0.783,1.771c0,0.958-0.375,1.467-0.775,1.824c-0.244,0.22-0.439,0.395-0.439,0.626
			c0,0.227,0.268,0.461,0.574,0.732c0.506,0.444,1.199,1.054,1.199,2.074C11.717,14.531,11.262,15.287,10.365,15.722L10.365,15.722z
			 M16.188,10.989h-1.736v1.737h-1.1v-1.737h-1.736v-1.1h1.736V8.153h1.1v1.736h1.736V10.989z M8.963,12.32
			c-0.061,0-0.119,0.002-0.18,0.006c-0.508,0.037-0.979,0.229-1.318,0.537c-0.338,0.305-0.508,0.688-0.484,1.078
			c0.051,0.814,0.926,1.291,1.988,1.215c1.045-0.076,1.742-0.678,1.691-1.492C10.611,12.897,9.945,12.32,8.963,12.32L8.963,12.32z
			 M8.963,12.32"/>
	</symbol>

	<symbol id="svgPin" viewBox="0 0 22 22.001">
		<path fill="#B3B3B3" d="M10.998,0C4.922,0,0,4.925,0,11c0,6.076,4.922,11.001,10.998,11.001S22,17.076,22,11
	C22,4.925,17.074,0,10.998,0L10.998,0z M11.752,13.61c-0.707-0.056-1.002-0.404-1.555-0.74c-0.303,1.593-0.674,3.122-1.775,3.92
	c-0.34-2.409,0.498-4.219,0.889-6.141c-0.664-1.116,0.078-3.365,1.479-2.811c1.723,0.682-1.492,4.152,0.666,4.587
	c2.252,0.452,3.174-3.908,1.775-5.326c-2.018-2.048-5.873-0.047-5.398,2.885c0.113,0.717,0.854,0.934,0.295,1.923
	c-1.293-0.286-1.676-1.304-1.629-2.663c0.08-2.222,1.998-3.778,3.92-3.994c2.434-0.272,4.717,0.893,5.031,3.181
	C15.805,11.014,14.354,13.811,11.752,13.61L11.752,13.61z M11.752,13.61"/>
	
	</symbol>

	<symbol id="svgTwitter" viewBox="0 0 22 22.001">
		<path fill="#B3B3B3" d="M11,0C4.924,0,0,4.925,0,11c0,6.077,4.924,11.001,11,11.001S22,17.077,22,11C22,4.925,17.076,0,11,0L11,0z
	 M15.475,9.012c0.004,0.093,0.006,0.187,0.006,0.281c0,2.863-2.18,6.164-6.166,6.164c-1.223,0-2.361-0.358-3.318-0.973
	c0.168,0.02,0.342,0.03,0.516,0.03c1.016,0,1.949-0.347,2.689-0.928c-0.945-0.019-1.746-0.645-2.023-1.505
	c0.133,0.025,0.27,0.039,0.406,0.039c0.199,0,0.391-0.025,0.572-0.076c-0.99-0.199-1.738-1.074-1.738-2.124
	c0-0.01,0-0.02,0.002-0.028c0.291,0.163,0.625,0.259,0.98,0.272c-0.582-0.39-0.965-1.052-0.965-1.804
	c0-0.397,0.107-0.769,0.295-1.089c1.066,1.31,2.664,2.173,4.465,2.263c-0.037-0.159-0.055-0.324-0.055-0.494
	c0-1.196,0.969-2.167,2.166-2.167c0.623,0,1.186,0.262,1.582,0.685c0.492-0.097,0.957-0.277,1.375-0.525
	c-0.162,0.505-0.506,0.93-0.953,1.198c0.439-0.053,0.855-0.169,1.244-0.341C16.264,8.325,15.898,8.706,15.475,9.012L15.475,9.012z
	 M15.475,9.012"/>
	</symbol>
	<symbol id="svgcartplus" viewBox="0 0 43.691 29.913">
		<g>
	<polygon points="18.396,22.005 36.428,22.005 43.691,8.786 41.549,8.626 35.47,20.005 19.523,20.005 9,0 9,0 
		9.157,0.005 0,0.005 0,2.005 7.874,2.005 	"/>
	<circle cx="20.438" cy="26.912" r="3.001"/>
	<circle cx="34.236" cy="26.912" r="3.001"/>
</g>
<rect x="19" y="7.005" width="16" height="2"/>
<rect x="26" y="0.005" width="2" height="16"/>
<g>
</g>
	
	</symbol>
	

</svg>
