<?xml version="1.0" encoding="utf-8"?>
<!-- Generator: Adobe Illustrator 16.0.0, SVG Export Plug-In . SVG Version: 6.00 Build 0)  -->
<!DOCTYPE svg PUBLIC "-//W3C//DTD SVG 1.1//EN" "http://www.w3.org/Graphics/SVG/1.1/DTD/svg11.dtd">
<svg version="1.1" id="Layer_2" xmlns="http://www.w3.org/2000/svg" xmlns:xlink="http://www.w3.org/1999/xlink" x="0px" y="0px"
	 width="22px" height="22.056px" viewBox="0 0 22 22.056" enable-background="new 0 0 22 22.056" xml:space="preserve">
<g>
	<g>
		<defs>
			<rect id="SVGID_1_" width="22" height="22.056"/>
		</defs>
		<clipPath id="SVGID_2_">
			<use xlink:href="#SVGID_1_"  overflow="visible"/>
		</clipPath>
		<path clip-path="url(#SVGID_2_)" fill="#B3B3B3" d="M9.965,7.889C9.688,6.915,9.242,6.628,8.547,6.628
			c-0.078,0-0.152,0.01-0.225,0.03C8.023,6.743,7.783,6.995,7.65,7.367C7.514,7.747,7.504,8.141,7.623,8.591
			C7.834,9.394,8.404,9.976,8.98,9.976c0.074,0,0.15-0.01,0.223-0.03C9.832,9.769,10.227,8.807,9.965,7.889L9.965,7.889z M10.998,0
			C4.924,0,0,4.925,0,11c0,6.076,4.924,11,10.998,11C17.074,22,22,17.076,22,11C22,4.925,17.074,0,10.998,0L10.998,0z
			 M10.365,15.722c-0.689,0.336-1.436,0.373-1.723,0.373c-0.055,0-0.086-0.002-0.092-0.002c0,0-0.02,0.001-0.055,0.001
			c-0.449,0-2.684-0.104-2.684-2.14c0-2.001,2.434-2.157,3.18-2.157h0.02c-0.43-0.575-0.342-1.156-0.342-1.156
			c-0.037,0.003-0.092,0.006-0.16,0.006c-0.281,0-0.822-0.045-1.289-0.346c-0.57-0.367-0.859-0.99-0.859-1.855
			c0-2.441,2.668-2.54,2.693-2.541h2.662v0.058c0,0.298-0.535,0.355-0.898,0.405c-0.123,0.017-0.373,0.043-0.443,0.079
			c0.674,0.36,0.783,0.927,0.783,1.771c0,0.958-0.375,1.467-0.775,1.824c-0.244,0.22-0.439,0.395-0.439,0.626
			c0,0.227,0.268,0.461,0.574,0.732c0.506,0.444,1.199,1.054,1.199,2.074C11.717,14.531,11.262,15.287,10.365,15.722L10.365,15.722z
			 M16.188,10.989h-1.736v1.737h-1.1v-1.737h-1.736v-1.1h1.736V8.153h1.1v1.736h1.736V10.989z M8.963,12.32
			c-0.061,0-0.119,0.002-0.18,0.006c-0.508,0.037-0.979,0.229-1.318,0.537c-0.338,0.305-0.508,0.688-0.484,1.078
			c0.051,0.814,0.926,1.291,1.988,1.215c1.045-0.076,1.742-0.678,1.691-1.492C10.611,12.897,9.945,12.32,8.963,12.32L8.963,12.32z
			 M8.963,12.32"/>
	</g>
</g>
<g>
</g>
<g>
</g>
<g>
</g>
<g>
</g>
<g>
</g>
<g>
</g>
</svg>
