<?xml version="1.0" encoding="utf-8"?>
<!-- Generator: Adobe Illustrator 16.0.0, SVG Export Plug-In . SVG Version: 6.00 Build 0)  -->
<!DOCTYPE svg PUBLIC "-//W3C//DTD SVG 1.1//EN" "http://www.w3.org/Graphics/SVG/1.1/DTD/svg11.dtd">
<svg version="1.1" id="Layer_2" xmlns="http://www.w3.org/2000/svg" xmlns:xlink="http://www.w3.org/1999/xlink" x="0px" y="0px"
	 width="22px" height="22.058px" viewBox="0 0 22 22.058" enable-background="new 0 0 22 22.058" xml:space="preserve">
<g>
	<g>
		<defs>
			<rect id="SVGID_1_" width="22" height="22.058"/>
		</defs>
		<clipPath id="SVGID_2_">
			<use xlink:href="#SVGID_1_"  overflow="visible"/>
		</clipPath>
		<path clip-path="url(#SVGID_2_)" fill="#B3B3B3" d="M10.998,0C4.924,0,0,4.925,0,11c0,6.076,4.924,11.001,10.998,11.001
			C17.074,22.001,22,17.076,22,11C22,4.925,17.074,0,10.998,0L10.998,0z M13.605,7.602h-1.654c-0.195,0-0.414,0.257-0.414,0.601
			v1.195h2.068v1.702h-2.068v5.112H9.584v-5.112h-1.77V9.397h1.77V8.395c0-1.437,0.998-2.605,2.367-2.605h1.654V7.602z
			 M13.605,7.602"/>
	</g>
</g>
<g>
</g>
<g>
</g>
<g>
</g>
<g>
</g>
<g>
</g>
<g>
</g>
</svg>
