<?xml version="1.0" encoding="utf-8"?>
<!-- Generator: Adobe Illustrator 16.0.0, SVG Export Plug-In . SVG Version: 6.00 Build 0)  -->
<!DOCTYPE svg PUBLIC "-//W3C//DTD SVG 1.1//EN" "http://www.w3.org/Graphics/SVG/1.1/DTD/svg11.dtd">
<svg version="1.1" id="Layer_2" xmlns="http://www.w3.org/2000/svg" xmlns:xlink="http://www.w3.org/1999/xlink" x="0px" y="0px"
	 width="65.208px" height="22.942px" viewBox="0 0 65.208 22.942" enable-background="new 0 0 65.208 22.942" xml:space="preserve">
<g>
	<path fill="#FFFFFF" d="M57.953,0.012L35.157,0l-9.345,9.402h-7.48l9.392-9.392L21.75,0.001L0,0.012v22.93h31.357l9.393-9.393
		h0.052l7.364-0.002l-9.395,9.395h19.15l7.287-7.288V7.267L57.953,0.012z M29.65,18.797H4.144L4.146,4.153h13.583l-5.087,5.087
		v4.316l21.473-0.005l0.119-0.004h0.666L29.65,18.797z M61.063,13.941L56.204,18.8l-7.431-0.003l5.088-5.088V9.402H31.682
		l5.209-5.261l19.313,0.012l4.859,4.859V13.941z"/>
</g>
<g>
</g>
<g>
</g>
<g>
</g>
<g>
</g>
<g>
</g>
<g>
</g>
</svg>
