<?xml version="1.0" encoding="utf-8"?>
<!-- Generator: Adobe Illustrator 16.0.0, SVG Export Plug-In . SVG Version: 6.00 Build 0)  -->
<!DOCTYPE svg PUBLIC "-//W3C//DTD SVG 1.1//EN" "http://www.w3.org/Graphics/SVG/1.1/DTD/svg11.dtd">
<svg version="1.1" id="Layer_2" xmlns="http://www.w3.org/2000/svg" xmlns:xlink="http://www.w3.org/1999/xlink" x="0px" y="0px"
	 width="211.774px" height="30px" viewBox="0 0 211.774 30" enable-background="new 0 0 211.774 30" xml:space="preserve">
<g>
	<g>
		<polygon fill="#FFFFFF" points="21.557,0.326 21.227,0.664 21.227,3.913 21.557,4.245 25.469,4.245 25.79,3.913 25.79,0.664 
			25.469,0.326 		"/>
		<polygon fill="#FFFFFF" points="47.971,0.326 47.646,0.664 47.646,3.913 47.971,4.245 51.88,4.245 52.206,3.913 52.206,0.664 
			51.88,0.326 		"/>
		<polygon fill="#FFFFFF" points="188.483,0.326 188.157,0.664 188.157,3.913 188.483,4.245 192.395,4.245 192.713,3.913 
			192.713,0.664 192.395,0.326 		"/>
		<g>
			<g>
				<path fill="#FFFFFF" d="M7.825,19.237H4.886l-0.319-0.325V4.568l0.319-0.323h2.938c4.566,0,6.193,2.276,6.193,7.492
					C14.018,16.958,12.391,19.237,7.825,19.237 M7.499,0.326H0.327L0,0.664v22.16l0.327,0.326h7.172
					c8.156,0,11.09-4.238,11.09-11.413C18.588,4.568,15.655,0.326,7.499,0.326"/>
			</g>
			<polygon fill="#FFFFFF" points="21.557,6.847 21.227,7.176 21.227,22.824 21.557,23.15 25.469,23.15 25.79,22.824 25.79,7.176 
				25.469,6.847 			"/>
			<g>
				<path fill="#FFFFFF" d="M36.52,19.565c-2.604,0-3.588-1.952-3.588-4.566c0-2.603,0.984-4.566,3.588-4.566
					c2.609,0,3.594,1.963,3.594,4.566C40.114,17.613,39.129,19.565,36.52,19.565 M40.764,6.847L40.43,7.176l-0.316,0.98h-0.332
					c0,0-1.305-1.635-4.232-1.635c-3.918,0-7.178,3.263-7.178,8.479c0,5.225,3.26,8.476,7.178,8.476
					c2.928,0,4.232-1.621,4.232-1.621h0.332c0,2.929-1.31,4.235-3.594,4.235c-1.301,0-1.957-0.328-2.277-0.977l-0.326-0.33h-3.911
					l-0.327,0.33C30.005,28.049,32.61,30,36.52,30c4.568,0,8.156-2.605,8.156-8.477V7.176l-0.332-0.329H40.764z"/>
			</g>
			<polygon fill="#FFFFFF" points="47.971,6.847 47.646,7.176 47.646,22.824 47.971,23.15 51.88,23.15 52.206,22.824 52.206,7.176 
				51.88,6.847 			"/>
			<g>
				<path fill="#FFFFFF" d="M62.278,6.847l-0.326-0.326V3.587l-0.328-0.325h-3.91l-0.326,0.325v2.934l-0.323,0.326h-2.286
					l-0.324,0.329v3.258l0.324,0.334h2.286l0.323,0.32v7.176c0,3.591,2.605,4.887,5.548,4.887h2.931l0.332-0.326v-3.259
					l-0.332-0.328h-2.931c-0.657,0-0.983-0.331-0.983-0.974v-7.176l0.326-0.32h3.588l0.332-0.334V7.176l-0.332-0.329H62.278z"/>
				<path fill="#FFFFFF" d="M78.083,17.285c0,1.301-1.283,2.34-3.053,2.34c-1.604,0-2.334-0.69-2.334-1.627
					c0-1.152,0.635-2.014,3.049-2.014h2.338V17.285z M75.745,6.523c-5.221,0-6.841,2.937-6.841,4.891l0.317,0.324h3.91l0.334-0.324
					c0.324-0.98,1.303-0.98,2.279-0.98c1.959,0,2.338,0.328,2.338,1.963v0.33h-2.664c-2.604,0-7.174,0.646-7.174,5.539
					c0,3.258,2.279,5.21,5.867,5.21c2.283,0,3.758-1.47,3.758-1.47h0.326l0.215,0.818l0.326,0.326h3.531l0.316-0.326v-8.803
					C82.584,9.134,80.958,6.523,75.745,6.523"/>
			</g>
			<polygon fill="#FFFFFF" points="85.616,0.326 85.292,0.664 85.292,22.824 85.616,23.15 89.528,23.15 89.854,22.824 89.854,0.664 
				89.528,0.326 			"/>
			<g>
				<path fill="#FFFFFF" d="M108.852,9.459c-4.564-0.648-5.865-1.303-5.865-3.263c0-1.304,0.979-2.284,3.912-2.284
					c3.586,0,4.564,0.98,4.564,2.934l0.322,0.329h3.912l0.332-0.329c0-3.907-2.613-6.847-8.805-6.847
					c-6.197,0-8.807,2.94-8.807,6.197c0,4.564,3.588,6.2,8.15,6.85c4.568,0.651,5.869,1.301,5.869,3.586
					c0,1.959-1.629,2.933-4.563,2.933c-3.91,0-5.223-1.3-5.223-3.581l-0.322-0.332h-3.912l-0.324,0.332
					c0,4.234,2.934,7.491,9.463,7.491c6.842,0,9.445-3.257,9.445-6.843C117.002,12.068,113.417,10.113,108.852,9.459"/>
				<path fill="#FFFFFF" d="M127.622,19.565c-2.605,0-3.58-1.952-3.58-4.566c0-2.603,0.975-4.566,3.58-4.566
					c2.607,0,3.586,1.963,3.586,4.566C131.208,17.613,130.229,19.565,127.622,19.565 M128.604,6.523
					c-2.936,0-4.246,1.633-4.246,1.633h-0.316l-0.326-0.98l-0.326-0.329h-3.594l-0.324,0.329v22.172l0.324,0.332h3.92l0.326-0.332
					v-7.493h0.316c0,0,1.311,1.621,4.246,1.621c3.91,0,7.17-3.251,7.17-8.476C135.774,9.784,132.514,6.523,128.604,6.523"/>
				<path fill="#FFFFFF" d="M148.79,6.847l-0.324,0.329v8.477c0,2.284-0.977,3.913-3.262,3.913c-1.953,0-2.602-1.302-2.602-2.933
					V7.176l-0.326-0.329h-3.912l-0.332,0.329v9.782c0,3.913,2.285,6.518,6.203,6.518c2.922,0,3.904-1.621,3.904-1.621h0.326
					l0.324,0.97l0.326,0.326h3.592l0.326-0.326V7.176l-0.326-0.329H148.79z"/>
				<path fill="#FFFFFF" d="M163.311,6.847l-0.332-0.326V3.587l-0.324-0.325h-3.912l-0.326,0.325v2.934l-0.326,0.326h-2.283
					l-0.328,0.329v3.258l0.328,0.334h2.283l0.326,0.32v7.176c0,3.591,2.604,4.887,5.539,4.887h2.936l0.33-0.326v-3.259l-0.33-0.328
					h-2.936c-0.645,0-0.977-0.331-0.977-0.974v-7.176l0.332-0.32h3.58l0.33-0.334V7.176l-0.33-0.329H163.311z"/>
				<path fill="#FFFFFF" d="M178.991,6.523c-2.283,0-3.586,0.978-4.236,1.633h-0.326l-0.324-0.98l-0.324-0.329h-3.594l-0.32,0.329
					v15.648l0.32,0.326h3.918l0.324-0.326v-8.148c0-2.939,1.311-4.243,3.588-4.243c1.951,0,2.604,1.304,2.604,2.939v9.452
					l0.33,0.326h3.912l0.326-0.326v-9.777C185.188,9.134,182.905,6.523,178.991,6.523"/>
			</g>
			<polygon fill="#FFFFFF" points="188.483,6.847 188.157,7.176 188.157,22.824 188.483,23.15 192.395,23.15 192.713,22.824 
				192.713,7.176 192.395,6.847 			"/>
			<polygon fill="#FFFFFF" points="206.178,14.676 206.178,14.348 210.092,10.434 210.092,7.176 209.764,6.847 207.805,6.847 
				207.155,7.176 200.639,13.698 200.309,13.698 200.309,0.656 199.987,0.326 196.077,0.326 195.741,0.656 195.741,22.824 
				196.077,23.15 199.987,23.15 200.309,22.824 200.309,20.553 200.639,19.899 202.586,17.937 202.918,17.937 207.481,22.824 
				208.137,23.15 211.774,23.15 211.774,21.13 			"/>
		</g>
	</g>
</g>
<g>
</g>
<g>
</g>
<g>
</g>
<g>
</g>
<g>
</g>
<g>
</g>
</svg>
