<?xml version="1.0" encoding="utf-8"?>
<!-- Generator: Adobe Illustrator 16.0.0, SVG Export Plug-In . SVG Version: 6.00 Build 0)  -->
<!DOCTYPE svg PUBLIC "-//W3C//DTD SVG 1.1//EN" "http://www.w3.org/Graphics/SVG/1.1/DTD/svg11.dtd">
<svg version="1.1" xmlns="http://www.w3.org/2000/svg" xmlns:xlink="http://www.w3.org/1999/xlink" x="0px" y="0px"
	 width="595.28px" height="841.89px" viewBox="0 0 595.28 841.89" enable-background="new 0 0 595.28 841.89" xml:space="preserve">
<g id="Layer_2">
	<rect x="0" display="none" fill="#1A171B" width="595.28" height="841.89"/>
	<g>
		<g>
			<polygon fill="#FFFFFF" points="428.196,130.288 427.919,130.577 427.919,133.361 428.196,133.646 431.534,133.646 
				431.806,133.361 431.806,130.577 431.534,130.288 			"/>
			<polygon fill="#FFFFFF" points="450.715,130.288 450.438,130.577 450.438,133.361 450.715,133.646 454.049,133.646 
				454.327,133.361 454.327,130.577 454.049,130.288 			"/>
			<g>
				<path fill="#FFFFFF" d="M416.492,146.489h-2.503l-0.275-0.279v-12.288l0.275-0.276h2.503c3.892,0,5.278,1.948,5.278,6.418
					C421.771,144.536,420.384,146.489,416.492,146.489 M416.216,130.288h-6.118l-0.274,0.289v18.984l0.274,0.279h6.118
					c6.951,0,9.448-3.631,9.448-9.777C425.664,133.922,423.167,130.288,416.216,130.288"/>
			</g>
			<polygon fill="#FFFFFF" points="428.196,135.875 427.919,136.156 427.919,149.562 428.196,149.841 431.534,149.841 
				431.806,149.562 431.806,136.156 431.534,135.875 			"/>
			<g>
				<path fill="#FFFFFF" d="M440.952,146.769c-2.22,0-3.059-1.673-3.059-3.91c0-2.231,0.839-3.912,3.059-3.912
					c2.229,0,3.068,1.68,3.068,3.912C444.021,145.095,443.182,146.769,440.952,146.769 M444.572,135.875l-0.287,0.282l-0.265,0.835
					h-0.285c0,0-1.118-1.397-3.609-1.397c-3.338,0-6.115,2.792-6.115,7.265c0,4.476,2.777,7.26,6.115,7.26
					c2.491,0,3.609-1.39,3.609-1.39h0.285c0,2.511-1.121,3.631-3.068,3.631c-1.111,0-1.667-0.281-1.938-0.838l-0.281-0.282H435.4
					l-0.277,0.282c0.277,2.515,2.5,4.186,5.829,4.186c3.894,0,6.954-2.231,6.954-7.261v-12.29l-0.283-0.282H444.572z"/>
			</g>
			<polygon fill="#FFFFFF" points="450.715,135.875 450.438,136.156 450.438,149.562 450.715,149.841 454.049,149.841 
				454.327,149.562 454.327,136.156 454.049,135.875 			"/>
			<g>
				<path fill="#FFFFFF" d="M462.91,135.875l-0.277-0.281v-2.512l-0.274-0.277h-3.339l-0.276,0.277v2.512l-0.275,0.281h-1.948
					l-0.28,0.282v2.791l0.28,0.286h1.948l0.275,0.273v6.149c0,3.073,2.223,4.185,4.728,4.185h2.499l0.282-0.279v-2.793l-0.282-0.28
					h-2.499c-0.561,0-0.838-0.285-0.838-0.833v-6.149l0.277-0.273h3.06l0.282-0.286v-2.791l-0.282-0.282H462.91z"/>
				<path fill="#FFFFFF" d="M476.387,144.815c0,1.116-1.093,2.006-2.604,2.006c-1.367,0-1.99-0.592-1.99-1.396
					c0-0.985,0.543-1.723,2.593-1.723h2.001V144.815z M474.386,135.597c-4.441,0-5.827,2.514-5.827,4.189l0.27,0.278h3.332
					l0.287-0.278c0.278-0.839,1.114-0.839,1.938-0.839c1.674,0,2.001,0.28,2.001,1.68v0.282h-2.275
					c-2.215,0-6.114,0.554-6.114,4.746c0,2.791,1.947,4.463,4.999,4.463c1.952,0,3.208-1.26,3.208-1.26h0.281l0.175,0.703
					l0.282,0.279h3.013l0.266-0.279v-7.543C480.221,137.833,478.838,135.597,474.386,135.597"/>
			</g>
			<polygon fill="#FFFFFF" points="482.805,130.288 482.532,130.577 482.532,149.562 482.805,149.841 486.146,149.841 
				486.421,149.562 486.421,130.577 486.146,130.288 			"/>
		</g>
		<g>
			<polygon fill="#FFFFFF" points="486.873,156.085 486.598,156.375 486.598,159.159 486.873,159.443 490.213,159.443 
				490.482,159.159 490.482,156.375 490.213,156.085 			"/>
			<g>
				<path fill="#FFFFFF" d="M418.994,163.915c-3.895-0.56-5.002-1.121-5.002-2.798c0-1.118,0.837-1.958,3.336-1.958
					c3.058,0,3.892,0.84,3.892,2.515l0.273,0.28h3.332l0.285-0.28c0-3.347-2.229-5.866-7.503-5.866
					c-5.285,0-7.511,2.519-7.511,5.309c0,3.91,3.063,5.309,6.947,5.866c3.896,0.559,5.001,1.116,5.001,3.073
					c0,1.678-1.386,2.512-3.886,2.512c-3.33,0-4.451-1.115-4.451-3.068l-0.28-0.285h-3.331l-0.273,0.285
					c0,3.629,2.499,6.418,8.063,6.418c5.832,0,8.052-2.789,8.052-5.861C425.938,166.146,422.882,164.47,418.994,163.915"/>
				<path fill="#FFFFFF" d="M434.988,172.568c-2.215,0-3.046-1.672-3.046-3.912c0-2.23,0.831-3.911,3.046-3.911
					c2.224,0,3.062,1.681,3.062,3.911C438.05,170.896,437.212,172.568,434.988,172.568 M435.828,161.394
					c-2.499,0-3.621,1.399-3.621,1.399h-0.265l-0.283-0.84l-0.273-0.28h-3.062l-0.282,0.28v18.993l0.282,0.285h3.335l0.283-0.285
					v-6.42h0.265c0,0,1.122,1.391,3.621,1.391c3.337,0,6.114-2.785,6.114-7.262C441.942,164.189,439.165,161.394,435.828,161.394"/>
				<path fill="#FFFFFF" d="M453.04,161.673l-0.278,0.28v7.261c0,1.959-0.834,3.354-2.781,3.354c-1.665,0-2.22-1.115-2.22-2.512
					v-8.103l-0.273-0.28h-3.34l-0.278,0.28v8.38c0,3.352,1.948,5.584,5.283,5.584c2.498,0,3.33-1.391,3.33-1.391h0.279l0.278,0.834
					l0.275,0.277h3.063l0.281-0.277v-13.407l-0.281-0.28H453.04z"/>
				<path fill="#FFFFFF" d="M465.413,161.673l-0.276-0.281v-2.514l-0.278-0.277h-3.335l-0.277,0.277v2.514l-0.276,0.281h-1.95
					l-0.276,0.28v2.791l0.276,0.286h1.95l0.276,0.277v6.145c0,3.074,2.218,4.186,4.717,4.186h2.505l0.287-0.277v-2.793l-0.287-0.281
					h-2.505c-0.55,0-0.826-0.283-0.826-0.834v-6.145l0.276-0.277h3.055l0.287-0.286v-2.791l-0.287-0.28H465.413z"/>
				<path fill="#FFFFFF" d="M478.783,161.394c-1.944,0-3.06,0.84-3.612,1.399h-0.275l-0.277-0.84l-0.281-0.28h-3.055l-0.277,0.28
					v13.407l0.277,0.277h3.336l0.277-0.277v-6.982c0-2.518,1.113-3.634,3.055-3.634c1.665,0,2.225,1.116,2.225,2.519v8.098
					l0.28,0.277h3.334l0.28-0.277v-8.378C484.069,163.632,482.117,161.394,478.783,161.394"/>
			</g>
			<polygon fill="#FFFFFF" points="486.873,161.673 486.598,161.954 486.598,175.361 486.873,175.638 490.213,175.638 
				490.482,175.361 490.482,161.954 490.213,161.673 			"/>
			<polygon fill="#FFFFFF" points="501.962,168.378 501.962,168.099 505.295,164.745 505.295,161.954 505.015,161.673 
				503.35,161.673 502.796,161.954 497.236,167.542 496.956,167.542 496.956,156.369 496.682,156.085 493.35,156.085 
				493.064,156.369 493.064,175.361 493.35,175.638 496.682,175.638 496.956,175.361 496.956,173.412 497.236,172.855 
				498.899,171.173 499.186,171.173 503.071,175.361 503.627,175.638 506.729,175.638 506.729,173.908 			"/>
		</g>
		<path fill="#FFFFFF" d="M386.112,130.255l-45.194-0.023l-18.526,18.734h-14.831l18.621-18.712l-11.844-0.02l-43.124,0.021v45.686
			h62.17l18.624-18.713h0.101l14.602-0.004l-18.626,18.717h37.967l14.451-14.518v-16.714L386.112,130.255z M330,167.683h-50.57
			l0.001-29.176h26.934l-10.087,10.135v8.599l42.574-0.01l0.234-0.008h1.32L330,167.683z M392.281,158.009l-9.635,9.68l-14.73-0.006
			l10.091-10.138v-8.58h-43.978l10.328-10.481l38.289,0.022l9.635,9.68V158.009z"/>
	</g>
	<g display="none">
		<g display="inline">
			<polygon fill="#FFFFFF" points="313.727,209.122 313.396,209.46 313.396,212.709 313.727,213.041 317.639,213.041 
				317.959,212.709 317.959,209.46 317.639,209.122 			"/>
			<polygon fill="#FFFFFF" points="340.141,209.122 339.815,209.46 339.815,212.709 340.141,213.041 344.05,213.041 
				344.375,212.709 344.375,209.46 344.05,209.122 			"/>
			<polygon fill="#FFFFFF" points="480.652,209.122 480.326,209.46 480.326,212.709 480.652,213.041 484.564,213.041 
				484.883,212.709 484.883,209.46 484.564,209.122 			"/>
			<g>
				<g>
					<path fill="#FFFFFF" d="M299.994,228.033h-2.938l-0.319-0.325v-14.344l0.319-0.323h2.938c4.566,0,6.193,2.276,6.193,7.492
						C306.188,225.754,304.561,228.033,299.994,228.033 M299.668,209.122h-7.172l-0.327,0.338v22.16l0.327,0.326h7.172
						c8.156,0,11.09-4.238,11.09-11.413C310.758,213.364,307.824,209.122,299.668,209.122"/>
				</g>
				<polygon fill="#FFFFFF" points="313.727,215.643 313.396,215.972 313.396,231.62 313.727,231.946 317.639,231.946 
					317.959,231.62 317.959,215.972 317.639,215.643 				"/>
				<g>
					<path fill="#FFFFFF" d="M328.689,228.361c-2.604,0-3.588-1.952-3.588-4.566c0-2.603,0.984-4.566,3.588-4.566
						c2.609,0,3.594,1.963,3.594,4.566C332.283,226.409,331.299,228.361,328.689,228.361 M332.934,215.643l-0.334,0.329l-0.316,0.98
						h-0.332c0,0-1.305-1.635-4.232-1.635c-3.918,0-7.178,3.263-7.178,8.479c0,5.225,3.26,8.476,7.178,8.476
						c2.928,0,4.232-1.621,4.232-1.621h0.332c0,2.929-1.31,4.235-3.594,4.235c-1.301,0-1.957-0.328-2.277-0.977l-0.326-0.33h-3.911
						l-0.327,0.33c0.327,2.936,2.932,4.887,6.842,4.887c4.568,0,8.156-2.605,8.156-8.477v-14.348l-0.332-0.329H332.934z"/>
				</g>
				<polygon fill="#FFFFFF" points="340.141,215.643 339.815,215.972 339.815,231.62 340.141,231.946 344.05,231.946 
					344.375,231.62 344.375,215.972 344.05,215.643 				"/>
				<g>
					<path fill="#FFFFFF" d="M354.447,215.643l-0.326-0.326v-2.934l-0.328-0.325h-3.91l-0.326,0.325v2.934l-0.323,0.326h-2.286
						l-0.324,0.329v3.258l0.324,0.334h2.286l0.323,0.32v7.176c0,3.591,2.605,4.887,5.548,4.887h2.931l0.332-0.326v-3.259
						l-0.332-0.328h-2.931c-0.657,0-0.983-0.331-0.983-0.974v-7.176l0.326-0.32h3.588l0.332-0.334v-3.258l-0.332-0.329H354.447z"/>
					<path fill="#FFFFFF" d="M370.252,226.081c0,1.301-1.283,2.34-3.053,2.34c-1.604,0-2.334-0.69-2.334-1.627
						c0-1.152,0.635-2.014,3.049-2.014h2.338V226.081z M367.914,215.319c-5.221,0-6.841,2.937-6.841,4.891l0.317,0.324h3.91
						l0.334-0.324c0.324-0.98,1.303-0.98,2.279-0.98c1.959,0,2.338,0.328,2.338,1.963v0.33h-2.664c-2.604,0-7.174,0.646-7.174,5.539
						c0,3.258,2.279,5.21,5.867,5.21c2.283,0,3.758-1.47,3.758-1.47h0.326l0.215,0.818l0.326,0.326h3.531l0.316-0.326v-8.803
						C374.754,217.93,373.127,215.319,367.914,215.319"/>
				</g>
				<polygon fill="#FFFFFF" points="377.785,209.122 377.461,209.46 377.461,231.62 377.785,231.946 381.697,231.946 
					382.023,231.62 382.023,209.46 381.697,209.122 				"/>
				<g>
					<path fill="#FFFFFF" d="M401.021,218.255c-4.564-0.648-5.865-1.303-5.865-3.263c0-1.304,0.979-2.284,3.912-2.284
						c3.586,0,4.564,0.98,4.564,2.934l0.322,0.329h3.912l0.332-0.329c0-3.907-2.613-6.847-8.805-6.847
						c-6.197,0-8.807,2.94-8.807,6.197c0,4.564,3.588,6.2,8.15,6.85c4.568,0.651,5.869,1.301,5.869,3.586
						c0,1.959-1.629,2.933-4.563,2.933c-3.91,0-5.223-1.3-5.223-3.581l-0.322-0.332h-3.912l-0.324,0.332
						c0,4.234,2.934,7.491,9.463,7.491c6.842,0,9.445-3.257,9.445-6.843C409.172,220.864,405.586,218.909,401.021,218.255"/>
					<path fill="#FFFFFF" d="M419.791,228.361c-2.605,0-3.58-1.952-3.58-4.566c0-2.603,0.975-4.566,3.58-4.566
						c2.607,0,3.586,1.963,3.586,4.566C423.377,226.409,422.398,228.361,419.791,228.361 M420.773,215.319
						c-2.936,0-4.246,1.633-4.246,1.633h-0.316l-0.326-0.98l-0.326-0.329h-3.594l-0.324,0.329v22.172l0.324,0.332h3.92l0.326-0.332
						v-7.493h0.316c0,0,1.311,1.621,4.246,1.621c3.91,0,7.17-3.251,7.17-8.476C427.943,218.58,424.684,215.319,420.773,215.319"/>
					<path fill="#FFFFFF" d="M440.959,215.643l-0.324,0.329v8.477c0,2.284-0.977,3.913-3.262,3.913
						c-1.953,0-2.602-1.302-2.602-2.933v-9.457l-0.326-0.329h-3.912l-0.332,0.329v9.782c0,3.913,2.285,6.518,6.203,6.518
						c2.922,0,3.904-1.621,3.904-1.621h0.326l0.324,0.97l0.326,0.326h3.592l0.326-0.326v-15.648l-0.326-0.329H440.959z"/>
					<path fill="#FFFFFF" d="M455.48,215.643l-0.332-0.326v-2.934l-0.324-0.325h-3.912l-0.326,0.325v2.934l-0.326,0.326h-2.283
						l-0.328,0.329v3.258l0.328,0.334h2.283l0.326,0.32v7.176c0,3.591,2.604,4.887,5.539,4.887h2.936l0.33-0.326v-3.259l-0.33-0.328
						h-2.936c-0.645,0-0.977-0.331-0.977-0.974v-7.176l0.332-0.32h3.58l0.33-0.334v-3.258l-0.33-0.329H455.48z"/>
					<path fill="#FFFFFF" d="M471.16,215.319c-2.283,0-3.586,0.978-4.236,1.633h-0.326l-0.324-0.98l-0.324-0.329h-3.594l-0.32,0.329
						v15.648l0.32,0.326h3.918l0.324-0.326v-8.148c0-2.939,1.311-4.243,3.588-4.243c1.951,0,2.604,1.304,2.604,2.939v9.452
						l0.33,0.326h3.912l0.326-0.326v-9.777C477.357,217.93,475.074,215.319,471.16,215.319"/>
				</g>
				<polygon fill="#FFFFFF" points="480.652,215.643 480.326,215.972 480.326,231.62 480.652,231.946 484.564,231.946 
					484.883,231.62 484.883,215.972 484.564,215.643 				"/>
				<polygon fill="#FFFFFF" points="498.348,223.472 498.348,223.144 502.262,219.229 502.262,215.972 501.934,215.643 
					499.975,215.643 499.324,215.972 492.809,222.494 492.479,222.494 492.479,209.452 492.156,209.122 488.246,209.122 
					487.91,209.452 487.91,231.62 488.246,231.946 492.156,231.946 492.479,231.62 492.479,229.349 492.809,228.695 
					494.756,226.732 495.088,226.732 499.65,231.62 500.307,231.946 503.943,231.946 503.943,229.926 				"/>
			</g>
		</g>
		<path display="inline" fill="#FFFFFF" d="M273.584,209.055l-22.796-0.012l-9.345,9.402h-7.48l9.392-9.392l-5.973-0.009
			l-21.75,0.01v22.93h31.357l9.393-9.393h0.052l7.364-0.002l-9.395,9.395h19.15l7.287-7.288v-8.388L273.584,209.055z
			 M245.281,227.841h-25.506l0.001-14.644h13.583l-5.087,5.087v4.316l21.473-0.005l0.119-0.004h0.666L245.281,227.841z
			 M276.694,222.985l-4.859,4.859l-7.431-0.003l5.088-5.088v-4.307h-22.179l5.209-5.261l19.313,0.012l4.859,4.859V222.985z"/>
	</g>
	<path display="none" fill="#B3B3B3" d="M452.059,296.833c-6.076,0-11,4.925-11,11c0,6.077,4.924,11.001,11,11.001
		s11-4.925,11-11.001C463.059,301.759,458.135,296.833,452.059,296.833L452.059,296.833z M456.533,305.845
		c0.004,0.093,0.006,0.187,0.006,0.281c0,2.863-2.18,6.164-6.166,6.164c-1.223,0-2.361-0.358-3.318-0.973
		c0.168,0.02,0.342,0.03,0.516,0.03c1.016,0,1.949-0.347,2.689-0.928c-0.945-0.019-1.746-0.645-2.023-1.505
		c0.133,0.025,0.27,0.039,0.406,0.039c0.199,0,0.391-0.025,0.572-0.076c-0.99-0.199-1.738-1.074-1.738-2.124
		c0-0.01,0-0.02,0.002-0.028c0.291,0.163,0.625,0.259,0.98,0.272c-0.582-0.39-0.965-1.052-0.965-1.804
		c0-0.397,0.107-0.769,0.295-1.089c1.066,1.31,2.664,2.173,4.465,2.263c-0.037-0.159-0.055-0.324-0.055-0.494
		c0-1.196,0.969-2.167,2.166-2.167c0.623,0,1.186,0.262,1.582,0.685c0.492-0.097,0.957-0.277,1.375-0.525
		c-0.162,0.505-0.506,0.93-0.953,1.198c0.439-0.053,0.855-0.169,1.244-0.341C457.322,305.159,456.957,305.54,456.533,305.845
		L456.533,305.845z M456.533,305.845"/>
	<path display="none" fill="#B3B3B3" d="M413.893,296.834c-6.076,0-10.998,4.925-10.998,11c0,6.076,4.922,11.001,10.998,11.001
		s11.002-4.925,11.002-11.001C424.895,301.759,419.969,296.834,413.893,296.834L413.893,296.834z M414.646,310.444
		c-0.707-0.056-1.002-0.404-1.555-0.74c-0.303,1.593-0.674,3.122-1.775,3.92c-0.34-2.409,0.498-4.219,0.889-6.141
		c-0.664-1.116,0.078-3.365,1.479-2.811c1.723,0.682-1.492,4.152,0.666,4.587c2.252,0.452,3.174-3.908,1.775-5.326
		c-2.018-2.048-5.873-0.047-5.398,2.885c0.113,0.717,0.854,0.934,0.295,1.923c-1.293-0.286-1.676-1.304-1.629-2.663
		c0.08-2.222,1.998-3.778,3.92-3.994c2.434-0.272,4.717,0.893,5.031,3.181C418.699,307.848,417.248,310.645,414.646,310.444
		L414.646,310.444z M414.646,310.444"/>
	<g display="none">
		<g display="inline">
			<defs>
				<rect id="SVGID_1_" x="364.73" y="296.806" width="22" height="22.056"/>
			</defs>
			<clipPath id="SVGID_2_">
				<use xlink:href="#SVGID_1_"  overflow="visible"/>
			</clipPath>
			<path clip-path="url(#SVGID_2_)" fill="#B3B3B3" d="M374.695,304.695c-0.277-0.974-0.723-1.261-1.418-1.261
				c-0.078,0-0.152,0.01-0.225,0.03c-0.299,0.085-0.539,0.337-0.672,0.709c-0.137,0.379-0.146,0.773-0.027,1.224
				c0.211,0.802,0.781,1.384,1.357,1.384c0.074,0,0.15-0.01,0.223-0.03C374.563,306.575,374.957,305.613,374.695,304.695
				L374.695,304.695z M375.729,296.806c-6.074,0-10.998,4.925-10.998,11c0,6.076,4.924,11,10.998,11c6.076,0,11.002-4.924,11.002-11
				C386.73,301.731,381.805,296.806,375.729,296.806L375.729,296.806z M375.096,312.528c-0.689,0.336-1.436,0.373-1.723,0.373
				c-0.055,0-0.086-0.002-0.092-0.002c0,0-0.02,0.001-0.055,0.001c-0.449,0-2.684-0.104-2.684-2.14c0-2.001,2.434-2.157,3.18-2.157
				h0.02c-0.43-0.575-0.342-1.156-0.342-1.156c-0.037,0.003-0.092,0.006-0.16,0.006c-0.281,0-0.822-0.045-1.289-0.346
				c-0.57-0.367-0.859-0.99-0.859-1.855c0-2.441,2.668-2.54,2.693-2.541h2.662v0.058c0,0.298-0.535,0.355-0.898,0.405
				c-0.123,0.017-0.373,0.043-0.443,0.079c0.674,0.36,0.783,0.927,0.783,1.771c0,0.958-0.375,1.467-0.775,1.824
				c-0.244,0.22-0.439,0.395-0.439,0.626c0,0.227,0.268,0.461,0.574,0.732c0.506,0.444,1.199,1.054,1.199,2.074
				C376.447,311.337,375.992,312.093,375.096,312.528L375.096,312.528z M380.918,307.795h-1.736v1.737h-1.1v-1.737h-1.736v-1.1
				h1.736v-1.736h1.1v1.736h1.736V307.795z M373.693,309.126c-0.061,0-0.119,0.002-0.18,0.006c-0.508,0.037-0.979,0.229-1.318,0.537
				c-0.338,0.305-0.508,0.688-0.484,1.078c0.051,0.814,0.926,1.291,1.988,1.215c1.045-0.076,1.742-0.678,1.691-1.492
				C375.342,309.703,374.676,309.126,373.693,309.126L373.693,309.126z M373.693,309.126"/>
		</g>
	</g>
	<g display="none">
		<g display="inline">
			<defs>
				<rect id="SVGID_3_" x="326.566" y="296.806" width="22" height="22.058"/>
			</defs>
			<clipPath id="SVGID_4_">
				<use xlink:href="#SVGID_3_"  overflow="visible"/>
			</clipPath>
			<path clip-path="url(#SVGID_4_)" fill="#B3B3B3" d="M337.564,296.806c-6.074,0-10.998,4.925-10.998,11
				c0,6.076,4.924,11.001,10.998,11.001c6.076,0,11.002-4.925,11.002-11.001C348.566,301.73,343.641,296.806,337.564,296.806
				L337.564,296.806z M340.172,304.407h-1.654c-0.195,0-0.414,0.257-0.414,0.601v1.195h2.068v1.702h-2.068v5.112h-1.953v-5.112
				h-1.77v-1.702h1.77v-1.002c0-1.437,0.998-2.605,2.367-2.605h1.654V304.407z M340.172,304.407"/>
		</g>
	</g>
	<g display="none">
		<path display="inline" fill="#B3B3B3" d="M306.053,307.834c0,3.675-2.979,6.651-6.652,6.651s-6.65-2.977-6.65-6.651
			c0-0.438,0.043-0.865,0.125-1.279h-4.473v8.843c0,1.897,1.537,3.438,3.438,3.438h15.125c1.896,0,3.438-1.54,3.438-3.438v-8.843
			h-4.473C306.01,306.969,306.053,307.396,306.053,307.834L306.053,307.834z M306.965,296.834H291.84
			c-1.9,0-3.438,1.539-3.438,3.438v3.726h5.566c1.205-1.702,3.189-2.813,5.432-2.813c2.244,0,4.229,1.111,5.432,2.813h5.57v-3.726
			C310.402,298.373,308.861,296.834,306.965,296.834L306.965,296.834z M308.645,301.081c0,0.338-0.277,0.613-0.613,0.613h-1.842
			c-0.338,0-0.615-0.275-0.615-0.613v-1.842c0-0.338,0.277-0.613,0.615-0.613h1.842c0.336,0,0.613,0.275,0.613,0.613V301.081z
			 M303.494,307.834c0-2.26-1.832-4.092-4.094-4.092c-2.26,0-4.092,1.832-4.092,4.092c0,2.261,1.832,4.093,4.092,4.093
			C301.662,311.927,303.494,310.095,303.494,307.834L303.494,307.834z M303.494,307.834"/>
	</g>
	<g display="none">
		<g display="inline">
			<defs>
				<rect id="SVGID_5_" x="493.27" y="296.832" width="22" height="22.005"/>
			</defs>
			<clipPath id="SVGID_6_">
				<use xlink:href="#SVGID_5_"  overflow="visible"/>
			</clipPath>
			<path clip-path="url(#SVGID_6_)" fill="#B3B3B3" d="M509.756,305.076c0-4.552-3.691-8.244-8.244-8.244s-8.242,3.691-8.242,8.244
				s3.689,8.244,8.242,8.244S509.756,309.628,509.756,305.076L509.756,305.076z M501.512,311.259c-3.408,0-6.182-2.773-6.182-6.183
				c0-3.409,2.773-6.183,6.182-6.183s6.184,2.773,6.184,6.183C507.695,308.486,504.92,311.259,501.512,311.259L501.512,311.259z
				 M501.512,311.259"/>
			<path clip-path="url(#SVGID_6_)" fill="#B3B3B3" d="M514.648,315.297l-5.043-5.043c-0.754,1.169-1.746,2.163-2.916,2.914
				l5.045,5.044c0.807,0.805,2.109,0.805,2.914,0S515.453,316.103,514.648,315.297L514.648,315.297z M514.648,315.297"/>
		</g>
	</g>
	<g display="none">
		<polygon display="inline" fill="#FFFFFF" points="91.396,215 109.428,215 116.691,201.782 114.549,201.621 108.47,213 92.523,213 
			82,192.995 82,192.995 82.157,193 73,193 73,195 80.874,195 		"/>
		<circle display="inline" fill="#FFFFFF" cx="93.438" cy="219.907" r="3.001"/>
		<circle display="inline" fill="#FFFFFF" cx="107.236" cy="219.907" r="3.001"/>
	</g>
	<polygon display="none" fill="#00AFCB" points="151.586,298 88,298 88,318 151.583,318 161.585,307.998 	"/>
	<g display="none">
		<g display="inline">
			<path fill="#FFFFFF" d="M101.148,303.614V313h-0.78v-0.48c-0.685,0.406-1.378,0.61-2.08,0.61c-0.32,0-0.598-0.036-0.832-0.11
				c-0.233-0.074-0.472-0.219-0.715-0.436c-0.494-0.441-0.74-1.307-0.74-2.594c0-1.287,0.208-2.212,0.624-2.775
				c0.415-0.563,1.117-0.845,2.105-0.845c0.381,0,0.928,0.056,1.638,0.169v-2.925H101.148z M97.801,312.337
				c0.16,0.062,0.368,0.091,0.624,0.091s0.551-0.047,0.884-0.143c0.334-0.096,0.597-0.187,0.787-0.273l0.272-0.143v-4.654
				c-0.693-0.104-1.23-0.156-1.611-0.156c-0.737,0-1.246,0.226-1.527,0.676c-0.282,0.451-0.423,1.148-0.423,2.093
				c0,1.109,0.169,1.833,0.507,2.171C97.479,312.164,97.641,312.276,97.801,312.337z"/>
			<path fill="#FFFFFF" d="M102.813,309.736c0-1.221,0.206-2.088,0.617-2.599c0.412-0.511,1.113-0.767,2.106-0.767
				c0.992,0,1.694,0.256,2.105,0.767c0.412,0.511,0.618,1.378,0.618,2.599c0,1.223-0.188,2.094-0.565,2.613
				c-0.378,0.521-1.095,0.78-2.152,0.78c-1.057,0-1.776-0.26-2.157-0.78C103.003,311.83,102.813,310.959,102.813,309.736z
				 M103.618,309.717c0,1.027,0.119,1.738,0.357,2.133s0.759,0.592,1.561,0.592c0.801,0,1.323-0.199,1.566-0.599
				c0.242-0.398,0.364-1.106,0.364-2.126c0-1.018-0.137-1.715-0.41-2.092c-0.272-0.377-0.777-0.565-1.515-0.565
				c-0.736,0-1.241,0.187-1.514,0.559C103.755,307.991,103.618,308.69,103.618,309.717z"/>
			<path fill="#FFFFFF" d="M109.299,306.5h0.793l1.431,5.824h0.182l1.69-5.694h0.818l1.69,5.694h0.194l1.431-5.824h0.793l-1.625,6.5
				h-1.353l-1.533-5.356L112.263,313h-1.339L109.299,306.5z"/>
			<path fill="#FFFFFF" d="M120.492,313h-0.768v-6.5h0.768v0.481c0.728-0.407,1.434-0.611,2.119-0.611
				c0.866,0,1.444,0.229,1.735,0.689c0.29,0.459,0.436,1.3,0.436,2.522V313h-0.78v-3.38c0-0.997-0.096-1.67-0.286-2.021
				s-0.598-0.527-1.222-0.527c-0.304,0-0.622,0.046-0.956,0.137c-0.333,0.091-0.591,0.184-0.773,0.279l-0.272,0.13V313z"/>
			<path fill="#FFFFFF" d="M126.732,313v-9.386h0.768V313H126.732z"/>
			<path fill="#FFFFFF" d="M129.254,309.736c0-1.221,0.206-2.088,0.617-2.599c0.412-0.511,1.113-0.767,2.106-0.767
				c0.992,0,1.694,0.256,2.105,0.767c0.412,0.511,0.618,1.378,0.618,2.599c0,1.223-0.188,2.094-0.565,2.613
				c-0.378,0.521-1.095,0.78-2.152,0.78c-1.057,0-1.776-0.26-2.157-0.78C129.444,311.83,129.254,310.959,129.254,309.736z
				 M130.06,309.717c0,1.027,0.119,1.738,0.357,2.133s0.759,0.592,1.561,0.592c0.801,0,1.323-0.199,1.566-0.599
				c0.242-0.398,0.364-1.106,0.364-2.126c0-1.018-0.137-1.715-0.41-2.092c-0.272-0.377-0.777-0.565-1.515-0.565
				c-0.736,0-1.241,0.187-1.514,0.559C130.196,307.991,130.06,308.69,130.06,309.717z"/>
			<path fill="#FFFFFF" d="M140.851,308.437v3.484c0.034,0.321,0.316,0.512,0.845,0.572l-0.039,0.624
				c-0.667,0-1.157-0.174-1.469-0.52c-0.814,0.355-1.63,0.532-2.444,0.532c-0.581,0-1.022-0.167-1.326-0.501
				c-0.303-0.333-0.455-0.81-0.455-1.43c0-0.619,0.154-1.078,0.462-1.378c0.308-0.299,0.791-0.483,1.449-0.552l2.21-0.222v-0.611
				c0-0.485-0.105-0.834-0.318-1.046c-0.212-0.212-0.496-0.319-0.852-0.319c-0.555,0-1.273,0.052-2.158,0.156l-0.402,0.039
				l-0.039-0.624c0.953-0.182,1.787-0.273,2.502-0.273c0.716,0,1.233,0.169,1.554,0.507S140.851,307.735,140.851,308.437z
				 M136.769,311.154c0,0.875,0.359,1.313,1.079,1.313c0.312,0,0.654-0.037,1.026-0.11c0.373-0.073,0.668-0.149,0.885-0.228
				l0.324-0.117v-2.353l-2.119,0.221c-0.424,0.034-0.729,0.156-0.916,0.364S136.769,310.756,136.769,311.154z"/>
			<path fill="#FFFFFF" d="M147.727,303.614V313h-0.78v-0.48c-0.685,0.406-1.378,0.61-2.08,0.61c-0.32,0-0.598-0.036-0.832-0.11
				c-0.233-0.074-0.472-0.219-0.715-0.436c-0.494-0.441-0.74-1.307-0.74-2.594c0-1.287,0.208-2.212,0.624-2.775
				c0.415-0.563,1.117-0.845,2.105-0.845c0.381,0,0.928,0.056,1.638,0.169v-2.925H147.727z M144.379,312.337
				c0.16,0.062,0.368,0.091,0.624,0.091s0.551-0.047,0.884-0.143c0.334-0.096,0.597-0.187,0.787-0.273l0.272-0.143v-4.654
				c-0.693-0.104-1.23-0.156-1.611-0.156c-0.737,0-1.246,0.226-1.527,0.676c-0.282,0.451-0.423,1.148-0.423,2.093
				c0,1.109,0.169,1.833,0.507,2.171C144.057,312.164,144.219,312.276,144.379,312.337z"/>
		</g>
	</g>
	<rect x="94.5" y="353.5" display="none" fill="#B4B4B4" stroke="#6D6D6D" stroke-miterlimit="10" width="40" height="20"/>
	<g display="none">
		<g display="inline">
			<path d="M111.313,359.42V368h-0.793v-7.696l-2.288,1.534l-0.377-0.624l2.704-1.794H111.313z"/>
		</g>
	</g>
	<g display="none">
		<g display="inline">
			<path d="M124.347,366.103l1.881,3.948l1.914-3.948h0.704l-2.31,4.619h-0.594l-2.288-4.619H124.347z"/>
			<path d="M126.228,357.962l-1.881,3.949h-0.693l2.288-4.62h0.594l2.31,4.62h-0.704L126.228,357.962z"/>
		</g>
	</g>
	<rect x="98.5" y="391.5" display="none" fill="#B4B4B4" stroke="#6D6D6D" stroke-miterlimit="10" width="40" height="20"/>
	<g display="none">
		<g display="inline">
			<path d="M106.494,406h-0.768v-6.5h0.768v0.481c0.658-0.407,1.36-0.611,2.105-0.611c0.746,0,1.274,0.229,1.586,0.689
				c0.313-0.19,0.691-0.353,1.138-0.488c0.446-0.134,0.848-0.201,1.203-0.201c0.866,0,1.444,0.228,1.735,0.683
				c0.29,0.455,0.436,1.298,0.436,2.528V406h-0.768v-3.38c0-0.997-0.093-1.67-0.279-2.021s-0.592-0.527-1.216-0.527
				c-0.312,0-0.633,0.046-0.962,0.137s-0.58,0.184-0.754,0.279l-0.26,0.13c0.13,0.329,0.195,0.997,0.195,2.002V406h-0.78v-3.354
				c0-1.014-0.094-1.696-0.279-2.047c-0.187-0.351-0.588-0.527-1.203-0.527c-0.303,0-0.613,0.046-0.929,0.137
				c-0.317,0.091-0.558,0.184-0.722,0.279l-0.247,0.13V406z"/>
			<path d="M116.309,402.737c0-1.222,0.206-2.088,0.617-2.6c0.412-0.511,1.113-0.767,2.106-0.767c0.992,0,1.694,0.256,2.105,0.767
				c0.412,0.511,0.618,1.378,0.618,2.6c0,1.222-0.188,2.093-0.565,2.613c-0.378,0.52-1.095,0.78-2.152,0.78
				c-1.057,0-1.776-0.26-2.157-0.78C116.499,404.83,116.309,403.959,116.309,402.737z M117.114,402.717
				c0,1.027,0.119,1.738,0.357,2.132s0.759,0.591,1.561,0.591c0.801,0,1.323-0.199,1.566-0.598c0.242-0.398,0.364-1.107,0.364-2.125
				c0-1.018-0.137-1.716-0.41-2.093c-0.272-0.377-0.777-0.565-1.515-0.565c-0.736,0-1.241,0.187-1.514,0.559
				C117.251,400.991,117.114,401.69,117.114,402.717z"/>
			<path d="M123.433,406v-6.5h0.768v0.936c0.32-0.225,0.713-0.442,1.177-0.65c0.463-0.208,0.89-0.347,1.28-0.416v0.78
				c-0.373,0.078-0.763,0.197-1.17,0.357c-0.408,0.161-0.724,0.301-0.949,0.423l-0.338,0.195V406H123.433z"/>
			<path d="M131.975,405.35l0.39-0.039l0.026,0.637c-0.979,0.121-1.808,0.182-2.483,0.182c-0.936-0.009-1.591-0.286-1.963-0.832
				c-0.373-0.546-0.559-1.386-0.559-2.522c0-2.271,0.892-3.406,2.678-3.406c0.857,0,1.499,0.245,1.924,0.734
				s0.637,1.272,0.637,2.347l-0.025,0.624h-4.42c0,0.797,0.136,1.389,0.409,1.774c0.272,0.386,0.741,0.579,1.404,0.579
				S131.315,405.402,131.975,405.35z M128.179,402.425h3.666c0-0.858-0.142-1.469-0.423-1.833c-0.282-0.364-0.732-0.546-1.353-0.546
				c-0.619,0-1.09,0.188-1.41,0.565S128.179,401.593,128.179,402.425z"/>
		</g>
	</g>
</g>
<g id="Layer_1" display="none">
	<g display="inline">
		<polygon fill="#FFFFFF" points="88.396,165 106.428,165 113.691,151.781 111.549,151.621 105.47,163 89.523,163 79,142.995 
			79,142.995 79.157,143 70,143 70,145 77.874,145 		"/>
		<circle fill="#FFFFFF" cx="90.438" cy="169.907" r="3.001"/>
		<circle fill="#FFFFFF" cx="104.236" cy="169.907" r="3.001"/>
	</g>
	<rect x="89" y="150" display="inline" fill="#FFFFFF" width="16" height="2"/>
	<rect x="96" y="143" display="inline" fill="#FFFFFF" width="2" height="16"/>
</g>
</svg>
