<?xml version="1.0" encoding="utf-8"?>
<!-- Generator: Adobe Illustrator 16.0.0, SVG Export Plug-In . SVG Version: 6.00 Build 0)  -->
<!DOCTYPE svg PUBLIC "-//W3C//DTD SVG 1.1//EN" "http://www.w3.org/Graphics/SVG/1.1/DTD/svg11.dtd">
<svg version="1.1" id="Layer_2" xmlns="http://www.w3.org/2000/svg" xmlns:xlink="http://www.w3.org/1999/xlink" x="0px" y="0px"
	 width="22px" height="22.001px" viewBox="0 0 22 22.001" enable-background="new 0 0 22 22.001" xml:space="preserve">
<path fill="#B3B3B3" d="M10.998,0C4.922,0,0,4.925,0,11c0,6.076,4.922,11.001,10.998,11.001S22,17.076,22,11
	C22,4.925,17.074,0,10.998,0L10.998,0z M11.752,13.61c-0.707-0.056-1.002-0.404-1.555-0.74c-0.303,1.593-0.674,3.122-1.775,3.92
	c-0.34-2.409,0.498-4.219,0.889-6.141c-0.664-1.116,0.078-3.365,1.479-2.811c1.723,0.682-1.492,4.152,0.666,4.587
	c2.252,0.452,3.174-3.908,1.775-5.326c-2.018-2.048-5.873-0.047-5.398,2.885c0.113,0.717,0.854,0.934,0.295,1.923
	c-1.293-0.286-1.676-1.304-1.629-2.663c0.08-2.222,1.998-3.778,3.92-3.994c2.434-0.272,4.717,0.893,5.031,3.181
	C15.805,11.014,14.354,13.811,11.752,13.61L11.752,13.61z M11.752,13.61"/>
<g>
</g>
<g>
</g>
<g>
</g>
<g>
</g>
<g>
</g>
<g>
</g>
</svg>
