<?xml version="1.0" encoding="utf-8"?>
<!-- Generator: Adobe Illustrator 16.0.0, SVG Export Plug-In . SVG Version: 6.00 Build 0)  -->
<!DOCTYPE svg PUBLIC "-//W3C//DTD SVG 1.1//EN" "http://www.w3.org/Graphics/SVG/1.1/DTD/svg11.dtd">
<svg version="1.1" id="Layer_3" xmlns="http://www.w3.org/2000/svg" xmlns:xlink="http://www.w3.org/1999/xlink" x="0px" y="0px"
	 width="22px" height="22.005px" viewBox="0 0 22 22.005" enable-background="new 0 0 22 22.005" xml:space="preserve">
<g>
	<defs>
		<rect id="SVGID_1_" width="22" height="22.005"/>
	</defs>
	<clipPath id="SVGID_2_">
		<use xlink:href="#SVGID_1_"  overflow="visible"/>
	</clipPath>
	<path clip-path="url(#SVGID_2_)" fill="#B3B3B3" d="M16.486,8.244C16.486,3.691,12.795,0,8.242,0S0,3.691,0,8.244
		s3.689,8.244,8.242,8.244S16.486,12.796,16.486,8.244L16.486,8.244z M8.242,14.427c-3.408,0-6.182-2.773-6.182-6.183
		c0-3.409,2.773-6.183,6.182-6.183s6.184,2.773,6.184,6.183C14.426,11.654,11.65,14.427,8.242,14.427L8.242,14.427z M8.242,14.427"
		/>
	<path clip-path="url(#SVGID_2_)" fill="#B3B3B3" d="M21.379,18.465l-5.043-5.043c-0.754,1.169-1.746,2.163-2.916,2.914l5.045,5.044
		c0.807,0.805,2.109,0.805,2.914,0S22.184,19.271,21.379,18.465L21.379,18.465z M21.379,18.465"/>
</g>
<g>
</g>
<g>
</g>
<g>
</g>
<g>
</g>
<g>
</g>
<g>
</g>
</svg>
