<?xml version="1.0" encoding="utf-8"?>
<!-- Generator: Adobe Illustrator 16.0.0, SVG Export Plug-In . SVG Version: 6.00 Build 0)  -->
<!DOCTYPE svg PUBLIC "-//W3C//DTD SVG 1.1//EN" "http://www.w3.org/Graphics/SVG/1.1/DTD/svg11.dtd">
<svg version="1.1" id="Layer_2" xmlns="http://www.w3.org/2000/svg" xmlns:xlink="http://www.w3.org/1999/xlink" x="0px" y="0px"
	 width="22px" height="22.001px" viewBox="0 0 22 22.001" enable-background="new 0 0 22 22.001" xml:space="preserve">
<path fill="#B3B3B3" d="M11,0C4.924,0,0,4.925,0,11c0,6.077,4.924,11.001,11,11.001S22,17.077,22,11C22,4.925,17.076,0,11,0L11,0z
	 M15.475,9.012c0.004,0.093,0.006,0.187,0.006,0.281c0,2.863-2.18,6.164-6.166,6.164c-1.223,0-2.361-0.358-3.318-0.973
	c0.168,0.02,0.342,0.03,0.516,0.03c1.016,0,1.949-0.347,2.689-0.928c-0.945-0.019-1.746-0.645-2.023-1.505
	c0.133,0.025,0.27,0.039,0.406,0.039c0.199,0,0.391-0.025,0.572-0.076c-0.99-0.199-1.738-1.074-1.738-2.124
	c0-0.01,0-0.02,0.002-0.028c0.291,0.163,0.625,0.259,0.98,0.272c-0.582-0.39-0.965-1.052-0.965-1.804
	c0-0.397,0.107-0.769,0.295-1.089c1.066,1.31,2.664,2.173,4.465,2.263c-0.037-0.159-0.055-0.324-0.055-0.494
	c0-1.196,0.969-2.167,2.166-2.167c0.623,0,1.186,0.262,1.582,0.685c0.492-0.097,0.957-0.277,1.375-0.525
	c-0.162,0.505-0.506,0.93-0.953,1.198c0.439-0.053,0.855-0.169,1.244-0.341C16.264,8.325,15.898,8.706,15.475,9.012L15.475,9.012z
	 M15.475,9.012"/>
<g>
</g>
<g>
</g>
<g>
</g>
<g>
</g>
<g>
</g>
<g>
</g>
</svg>
